/vscmnt/brussel_pixiu_data/_data_brussel/112/vsc11236/PredSimResults/SUBJ04mtu3D/worker1.mot
version=1
nRows=8
nColumns=50
inDegrees=yes
endheader
                time	         pelvis_tilt	         pelvis_list	     pelvis_rotation	           pelvis_tx	           pelvis_ty	           pelvis_tz	       hip_flexion_r	     hip_adduction_r	      hip_rotation_r	        knee_angle_r	       ankle_angle_r	         mtp_angle_r	       hip_flexion_l	     hip_adduction_l	      hip_rotation_l	        knee_angle_l	       ankle_angle_l	         mtp_angle_l	    lumbar_extension	      lumbar_bending	     lumbar_rotation	 ercspn_r/activation	 intobl_r/activation	 extobl_r/activation	    abd_r/activation	    add_r/activation	hamstrings_r/activation	bifemsh_r/activation	glut_max_r/activation	iliopsoas_r/activation	rect_fem_r/activation	  vasti_r/activation	gastroc_r/activation	 soleus_r/activation	tib_ant_r/activation	 ercspn_l/activation	 intobl_l/activation	 extobl_l/activation	    abd_l/activation	    add_l/activation	hamstrings_l/activation	bifemsh_l/activation	glut_max_l/activation	iliopsoas_l/activation	rect_fem_l/activation	  vasti_l/activation	gastroc_l/activation	 soleus_l/activation	tib_ant_l/activation	
          0.00000000	         -3.48568544	         -0.80317845	         14.53153477	          0.00000000	          0.93278637	         -0.03925523	         35.40595952	        -18.60736837	         -3.72099465	        -26.09672752	        -41.90732805	          0.22344251	          1.96544900	        -14.98515848	        -16.62408098	        -24.33385528	        -39.17523499	         60.14955255	        -15.35210341	          1.41567245	         -3.38647063	          0.24546766	          0.06415462	          0.10597270	          0.01000006	          0.42057141	          0.04620818	          0.68362649	          0.30042490	          0.35582127	          0.58191359	          0.16749799	          0.01000246	          0.09977367	          0.95529973	          0.12899582	          0.05051156	          0.01251199	          0.04842184	          0.33747178	          0.01000858	          0.20650317	          0.27158485	          0.74726958	          0.99266546	          0.64812033	          0.15079058	          0.29213293	          0.66796562	
          0.01248919	         -3.78444223	         -0.11959804	         14.68248838	          0.01433218	          0.92874541	         -0.03720985	         35.12952984	        -18.96752598	         -5.13518751	        -27.24544229	        -40.17845037	          1.22447585	          1.73357963	        -14.84614411	        -17.53440553	        -25.03961772	        -39.80636835	         60.11076431	        -14.82920595	          1.37766009	         -3.32043844	          0.20317623	          0.18265384	          0.08771502	          0.01000003	          0.45076210	          0.03825325	          0.60110378	          0.32543907	          0.29451709	          0.66245975	          0.13864038	          0.27516120	          0.12351535	          0.79071346	          0.21980400	          0.04180958	          0.07451849	          0.04007943	          0.43318531	          0.01000240	          0.24343199	          0.25043020	          0.79308614	          0.89463265	          0.65243872	          0.16754123	          0.36706549	          0.62180583	
          0.02497839	         -4.16001224	          0.27473768	         14.79088370	          0.02873342	          0.92468702	         -0.03535882	         34.83187352	        -19.42045290	         -5.99011400	        -29.14090699	        -37.27041968	          5.08604977	          1.66118407	        -14.96254997	        -18.25688070	        -25.73736405	        -40.57186866	         60.15559816	        -14.13563177	          1.67344056	         -3.15488430	          0.16817128	          0.32194717	          0.07260320	          0.01000308	          0.53664755	          0.07175772	          0.58736214	          0.32628337	          0.24377754	          0.72764904	          0.11475476	          0.24830481	          0.10223717	          0.65448252	          0.25200193	          0.03460646	          0.12795211	          0.03317442	          0.54667410	          0.01185781	          0.27247557	          0.21556781	          0.81171104	          0.84734283	          0.62773950	          0.16305800	          0.38064953	          0.56920103	
          0.03746758	         -4.61872218	          0.58953729	         14.77710420	          0.04292024	          0.92102568	         -0.03341416	         34.47852965	        -19.75184009	         -6.83656729	        -30.48738049	        -35.44284818	         10.33391514	          1.62345390	        -15.07077406	        -18.82120667	        -26.22418205	        -41.64591497	         60.15947041	        -13.38844891	          2.06225245	         -2.97254122	          0.13919818	          0.37469793	          0.06009531	          0.01000048	          0.57811496	          0.09627873	          0.62069100	          0.30237805	          0.25548465	          0.66610093	          0.09498441	          0.24317367	          0.08462474	          0.58086432	          0.25945375	          0.02864457	          0.10598011	          0.02745984	          0.59702207	          0.01000538	          0.22554778	          0.19311391	          0.81720663	          0.80918929	          0.57709004	          0.15923698	          0.38989921	          0.49139686	
          0.04995678	         -5.15229805	          0.87662697	         14.63717015	          0.05671263	          0.91788431	         -0.03143874	         34.22699151	        -20.01783435	         -7.62890777	        -31.54734664	        -34.19348196	         15.89488697	          1.60934365	        -15.10470670	        -19.18150045	        -26.48215598	        -43.07540466	         60.13209173	        -12.63891424	          2.52072661	         -2.82975170	          0.11521821	          0.39222340	          0.04974241	          0.01000080	          0.60258896	          0.12503082	          0.63820079	          0.31199310	          0.29674273	          0.62141737	          0.07862079	          0.24442855	          0.07004693	          0.54998928	          0.29161866	          0.02370997	          0.09024191	          0.02273076	          0.61698747	          0.01000870	          0.27302066	          0.18760180	          0.80992930	          0.77779971	          0.53399790	          0.14764621	          0.39898087	          0.44155471	
          0.06244597	         -5.73897289	          1.14062982	         14.37538504	          0.07013521	          0.91526367	         -0.02940827	         34.13078469	        -20.21169593	         -8.27646141	        -32.47029909	        -33.21867385	         21.10327425	          1.63397299	        -15.07556717	        -19.31119343	        -26.60672771	        -44.71969756	         59.91268696	        -11.90710515	          3.05141738	         -2.74861167	          0.09537164	          0.35041635	          0.04117325	          0.01000117	          0.62217056	          0.15914069	          0.63399928	          0.35487092	          0.32860718	          0.61360317	          0.06507819	          0.24307616	          0.05798148	          0.53270886	          0.31816563	          0.01962567	          0.07909359	          0.01881929	          0.61139716	          0.01005014	          0.28493174	          0.16935501	          0.79066487	          0.75238400	          0.48805893	          0.13581668	          0.41070543	          0.41109409	
          0.07493517	         -6.35331339	          1.38680796	         14.00234109	          0.08328137	          0.91316918	         -0.02728299	         34.16306495	        -20.31973326	         -8.70510122	        -33.28327422	        -32.36176533	         25.58135223	          1.71132057	        -14.99225047	        -19.13653393	        -26.68957286	        -46.45515174	         59.33863318	        -11.20589537	          3.64219892	         -2.73515233	          0.07908544	          0.29004963	          0.03408040	          0.01000337	          0.63719361	          0.18250904	          0.61760744	          0.40403481	          0.34479838	          0.61401197	          0.09262553	          0.25695030	          0.04799760	          0.50712290	          0.35943117	          0.01624526	          0.07966780	          0.01931610	          0.59622850	          0.01590670	          0.29821980	          0.14017826	          0.75868729	          0.72663052	          0.44576561	          0.13257574	          0.42559744	          0.40177238	
          0.08742436	         -6.97110779	          1.62480079	         13.51964142	          0.09624592	          0.91167327	         -0.02503975	         34.25625013	        -20.33439650	         -8.90203046	        -33.93016551	        -31.63080163	         29.26239495	          1.84373703	        -14.84314716	        -18.56071068	        -26.79340595	        -48.16613739	         58.22118506	        -10.54652998	          4.27069561	         -2.77737471	          0.07265516	          0.24007961	          0.02820960	          0.01000114	          0.63665407	          0.22223715	          0.60340064	          0.44767969	          0.35833156	          0.61131498	          0.14182186	          0.26434812	          0.06591583	          0.50579799	          0.41391781	          0.01344799	          0.09058971	          0.01901802	          0.58041676	          0.02521262	          0.31228949	          0.11602758	          0.71907802	          0.70783889	          0.41272386	          0.15566001	          0.44667196	          0.43755112	
